<?xml version="1.0" standalone="no"?>
<!DOCTYPE svg PUBLIC "-//W3C//DTD SVG 20010904//EN"
 "http://www.w3.org/TR/2001/REC-SVG-20010904/DTD/svg10.dtd">
<svg version="1.0" xmlns="http://www.w3.org/2000/svg"
 width="550.000000pt" height="550.000000pt" viewBox="0 0 550.000000 550.000000"
 preserveAspectRatio="xMidYMid meet">
<metadata>
Created by potrace 1.11, written by Peter Selinger 2001-2013
</metadata>
<g transform="translate(0.000000,550.000000) scale(0.100000,-0.100000)"
fill="#000000" stroke="none">
<path d="M2549 5496 c-2 -2 -33 -6 -69 -10 -129 -12 -214 -26 -369 -60 -52
-12 -182 -50 -231 -67 -30 -11 -62 -22 -70 -24 -8 -2 -16 -4 -17 -5 -2 -2 -6
-3 -10 -5 -5 -1 -19 -6 -33 -12 -14 -6 -50 -21 -80 -33 -110 -44 -290 -140
-425 -228 -60 -39 -229 -163 -240 -176 -5 -6 -35 -32 -65 -57 -108 -91 -261
-251 -348 -365 -20 -27 -42 -55 -49 -61 -6 -7 -46 -65 -88 -129 -139 -209
-266 -477 -331 -699 -2 -5 -13 -41 -24 -80 -23 -77 -65 -282 -74 -360 -4 -27
-10 -81 -15 -120 -9 -73 -7 -484 3 -545 3 -19 8 -55 11 -80 3 -25 11 -72 17
-105 6 -33 12 -69 14 -80 10 -62 52 -218 85 -312 17 -48 32 -92 33 -98 22 -77
159 -356 230 -469 31 -48 56 -92 56 -97 0 -5 4 -9 8 -9 4 0 16 -15 27 -33 10
-17 21 -34 24 -37 3 -3 26 -32 51 -65 110 -148 360 -403 464 -474 11 -8 23
-17 26 -20 16 -19 236 -171 246 -171 4 0 22 -11 41 -26 18 -14 33 -22 33 -19
0 4 12 -2 27 -13 16 -11 62 -36 103 -57 300 -151 612 -242 965 -283 79 -9 475
-8 545 1 30 4 62 8 70 8 8 0 40 5 70 10 30 4 71 11 90 14 52 8 238 53 295 71
76 24 188 64 207 75 10 5 22 9 28 9 5 0 69 28 142 63 509 242 918 617 1201
1099 80 135 192 372 212 448 3 8 18 56 35 105 17 50 32 99 34 110 2 11 11 47
19 80 9 33 18 74 21 90 3 17 8 40 10 51 7 36 17 97 22 139 2 22 7 54 10 70 9
55 12 479 3 550 -5 39 -11 93 -14 120 -3 28 -10 73 -16 100 -5 28 -11 59 -13
70 -89 463 -328 935 -656 1299 -110 122 -322 314 -415 374 -22 15 -42 29 -45
33 -7 8 -131 89 -136 89 -3 0 -24 13 -47 28 -96 64 -334 175 -492 230 -162 57
-392 111 -540 128 -22 2 -53 7 -70 10 -33 6 -490 15 -496 10z m484 -281 c740
-87 1391 -490 1799 -1115 579 -887 522 -2066 -140 -2895 -925 -1156 -2644
-1256 -3691 -214 -700 697 -922 1742 -564 2659 126 321 315 610 559 854 396
396 904 643 1461 711 150 18 423 18 576 0z"/>
<path d="M4224 4374 c-199 -174 -455 -418 -714 -680 -556 -564 -969 -1063
-1320 -1595 l-117 -177 -118 134 c-169 191 -543 557 -729 712 -87 72 -164 132
-170 132 -6 -1 -45 -47 -86 -103 -108 -146 -295 -379 -399 -495 l-90 -100 72
-58 c465 -373 1080 -980 1480 -1461 61 -73 114 -130 118 -126 3 5 62 89 130
188 837 1224 1783 2301 2497 2845 40 30 72 59 72 63 0 5 -29 46 -63 91 -157
200 -329 467 -413 639 -21 42 -41 77 -45 77 -3 0 -51 -39 -105 -86z"/>
</g>
</svg>
